<svg width="601" height="515" viewBox="0 0 601 515" fill="none" xmlns="http://www.w3.org/2000/svg">
<path d="M141.277 110.975C130.007 95.5018 128.611 76.0775 114.958 61.7204C113.324 60.0012 110.294 59.9107 108.149 60.9966C106.412 60.9664 104.71 61.6902 103.688 63.5C94.7676 79.0334 85.8472 94.5668 76.8927 110.1C75.1222 113.177 77.1993 117.942 81.7617 117.58C99.9771 116.163 118.295 116.464 136.442 118.425C140.698 118.877 143.422 113.871 141.311 110.945L141.277 110.975Z" fill="black" fill-opacity="0.07"/>
<path d="M143.796 221.911C152.138 220.071 160.65 219.106 169.264 219.106C177.878 219.106 186.526 219.679 195.14 220.041C199.124 220.222 202.494 215.577 200.009 212.561C190.135 200.556 181.896 187.466 175.801 173.622C175.461 172.837 174.95 172.144 174.303 171.54C173.248 167.68 166.711 165.538 164.055 169.972C155.203 184.842 146.316 199.712 137.464 214.612C135.182 218.472 138.962 222.997 143.796 221.911Z" fill="black" fill-opacity="0.07"/>
<path d="M371.03 72.9708C371.03 72.9708 370.928 72.82 370.86 72.7295C370.486 72.0961 370.179 71.4326 369.839 70.7992C368.988 69.1403 368.136 67.4813 367.285 65.8526C365.651 62.6855 364.051 59.4884 362.484 56.2913C359.352 49.8969 356.458 43.412 353.938 36.8066C353.7 36.2033 353.36 35.6605 352.951 35.1779C353.121 33.4586 352.406 31.6791 350.772 30.4424C348.048 28.3914 344.133 29.0851 341.783 31.2869C339.707 33.2475 338.379 36.1129 336.881 38.4353C335.417 40.7276 333.987 43.0199 332.591 45.3123C326.905 54.6323 321.593 64.1635 316.656 73.8154C314.92 77.2237 316.963 81.1748 321.525 81.2955C337.357 81.7178 353.189 82.1702 369.022 82.5925C375.15 82.7735 376.58 74.7202 371.064 72.9708H371.03ZM371.098 73.0613C371.473 73.3328 371.473 73.5741 371.098 73.0613V73.0613Z" fill="black" fill-opacity="0.07"/>
<path d="M224.353 284.618C223.979 283.984 223.502 283.502 222.957 283.109C222.515 282.325 221.834 281.662 220.88 281.149C218.395 279.852 214.547 280.516 213.186 282.928C205.15 297.165 197.115 311.401 189.114 325.638C187.378 328.714 189.42 333.48 193.983 333.118C208.861 331.972 223.706 330.584 238.551 328.956C241.786 328.594 245.429 326 243.965 322.652C238.347 309.592 231.844 296.863 224.353 284.557V284.618ZM203.857 322.35C203.857 322.35 203.618 322.35 203.516 322.38C203.584 322.29 203.618 322.169 203.686 322.079C203.754 322.169 203.788 322.26 203.857 322.35Z" fill="black" fill-opacity="0.07"/>
<path d="M37.4318 241.908C37.2275 239.917 35.355 238.017 33.244 237.504C30.0435 236.72 27.4899 238.47 26.3322 240.973C19.5908 255.692 10.9427 269.687 0.762437 282.778C-0.497326 284.376 -0.0887374 286.849 1.20507 288.297C2.73722 290.016 4.74599 290.378 7.12933 290.077C22.587 288.177 38.4533 288.81 53.7067 291.736C58.7798 292.701 62.0823 288.388 60.0395 284.436C52.7533 270.17 45.1947 255.994 37.4318 241.938V241.908ZM29.3285 275.056C29.3285 275.056 29.3285 274.966 29.3285 274.935C29.3285 274.935 29.3285 274.996 29.3285 275.056Z" fill="black" fill-opacity="0.07"/>
<path d="M308.894 178.659C311.209 177.271 312.809 174.134 310.903 171.842C307.804 168.132 305.081 164.12 303.208 159.837C301.437 155.826 300.416 151.633 299.292 147.441C297.113 139.116 294.049 131.214 285.98 125.966C285.401 125.604 284.754 125.392 284.073 125.302C281.758 124.427 278.898 124.789 277.331 127.323C267.832 142.494 257.924 157.455 247.574 172.204C245.463 175.19 248.153 180.076 252.443 179.684C262.453 178.779 272.565 178.327 282.507 179.986C291.257 181.464 300.926 183.424 308.894 178.628V178.659Z" fill="black" fill-opacity="0.07"/>
<path d="M470.824 141.8C474.263 142.162 477.463 138.302 476.237 135.497C469.836 120.747 462.482 105.214 446.65 96.5876C442.326 94.235 438.308 97.7338 438.342 101.172C433.065 113.478 424.485 124.487 413.556 133.446C410.219 136.16 412.602 142.464 417.539 141.951C435.244 140.081 453.119 140.021 470.824 141.831V141.8Z" fill="black" fill-opacity="0.07"/>
<path d="M485.295 321.717C489.959 321.898 491.729 317.434 490.163 314.237C484.443 302.654 477.463 291.645 469.292 281.27C469.258 281.239 469.224 281.179 469.19 281.149C468.441 277.107 461.597 274.694 458.839 279.249C450.668 292.731 441.271 305.61 430.716 317.735C429.388 319.274 429.933 321.898 431.159 323.255C432.623 324.884 434.768 325.457 437.083 325.035C452.983 322.169 469.156 321.083 485.329 321.687L485.295 321.717ZM463.878 292.068C463.878 292.068 463.64 292.068 463.538 292.098C463.606 292.007 463.64 291.917 463.708 291.826C463.776 291.917 463.81 291.977 463.878 292.068Z" fill="black" fill-opacity="0.07"/>
<path d="M247.914 48.6903C242.603 32.7346 235.555 17.2615 226.839 2.51233C225.749 0.672449 224.013 -0.0212989 222.242 0.0390251C219.382 -0.292757 217.169 1.336 216.114 3.62831C209.474 18.0759 202.154 32.3124 194.255 46.2774C192.349 49.6857 194.664 53.637 199.124 53.7576C213.594 54.1799 228.03 54.5719 242.501 54.9942C246.11 55.0847 248.936 51.7367 247.914 48.6903Z" fill="black" fill-opacity="0.07"/>
<path d="M106.753 356.071C107.331 350.672 98.1048 348.501 95.9938 353.749C95.0064 354.835 94.6316 356.101 94.8359 357.368C90.3416 371.876 83.5663 385.66 74.6118 398.479C72.1604 401.978 76.2801 407.316 80.9446 405.778C96.6406 400.681 113.12 398.569 129.803 399.625C134.195 399.897 136.613 395.221 134.672 392.145C126.637 379.386 117.239 367.352 106.787 356.071H106.753Z" fill="black" fill-opacity="0.07"/>
<path d="M326.53 375.948C324.624 372.751 320.708 372.962 318.257 374.772C315.839 374.862 314.001 376.37 313.048 378.421C306.408 392.688 297.522 406.14 287.035 418.476C283.903 422.156 289.044 426.741 293.368 425.776C311.243 421.824 329.458 419.2 347.844 417.994C352.883 417.662 354.994 412.866 351.827 409.488C342.056 399.143 333.646 387.892 326.53 375.978V375.948Z" fill="black" fill-opacity="0.07"/>
<path d="M488.971 410.212C488.767 407.497 485.771 405.839 482.877 405.959C480.868 405.265 478.553 405.446 476.851 406.985C475.046 408.613 474.603 411.69 476.34 413.53C471.199 426.741 464.083 439.228 455.162 450.78C452.507 454.218 456.967 459.617 461.495 458.079C479.881 451.926 499.288 449.212 518.899 450.086C524.279 450.328 525.606 444.687 522.883 441.581C512.771 430.149 501.365 419.683 488.971 410.182V410.212Z" fill="black" fill-opacity="0.07"/>
<path d="M530.68 177.784C530.407 177.573 530.101 177.361 529.76 177.18C527.275 175.884 523.461 176.547 522.065 178.96C513.622 193.739 503.374 207.674 491.355 220.372C488.427 223.449 490.095 229.059 495.338 228.878C513.179 228.275 531.054 228.577 548.861 229.813C551.891 230.024 554.513 227.37 554.479 224.836C554.377 207.976 547.023 191.658 534.084 179.322C533.029 178.327 531.871 177.874 530.714 177.814L530.68 177.784Z" fill="black" fill-opacity="0.07"/>
<path d="M540.145 27.366C540.213 27.2152 540.315 27.0342 540.383 26.8834C541.541 24.4101 539.124 21.4241 536.468 20.7605C533.234 19.9763 530.714 21.7558 529.556 24.2291C523.564 37.1083 516.618 49.6557 508.991 61.8109C507.085 64.8271 509.4 69.7134 513.86 69.2911C529.625 67.8132 545.524 67.8735 561.255 69.4721C565.579 69.9245 568.166 64.9478 566.123 61.9919C557.918 50.1986 549.27 38.6466 540.179 27.366H540.145Z" fill="black" fill-opacity="0.07"/>
<path d="M636.533 346.419C627.374 335.591 618.182 324.763 609.023 313.935C607.218 311.793 604.154 310.677 601.328 312.155C599.49 313.121 598.23 315.353 598.57 317.313C598.06 317.675 597.583 318.127 597.208 318.731C589.446 330.554 581.649 342.378 573.886 354.201C571.503 357.821 575.486 362.888 580.219 361.5C596.902 356.674 614.164 354.111 631.699 353.9C635.58 353.839 639.223 349.556 636.567 346.419H636.533Z" fill="black" fill-opacity="0.07"/>
<path d="M180.398 459.316C179.308 457.144 176.04 456.45 173.656 457.174C170.898 456.903 168.651 458.531 167.664 460.794C160.378 476.991 151.083 492.434 140.188 506.942C137.123 511.013 142.162 514.784 146.52 514.241C161.161 512.491 175.903 511.617 190.646 511.466C191.157 511.526 191.634 511.496 192.144 511.466C197.83 511.436 203.516 511.496 209.202 511.707C214.241 511.888 216.386 506.218 213.186 503.201C199.532 490.292 188.535 475.482 180.398 459.346V459.316Z" fill="black" fill-opacity="0.07"/>
<path d="M346.721 220.222C343.758 215.426 336.302 218.382 336.302 222.816C327.722 237.927 318.325 252.676 308.179 267.003C305.319 271.045 310.017 274.935 314.512 274.302C330.514 272.13 346.823 271.829 362.927 273.186C366.604 273.488 369.26 269.748 368.341 266.882C363.132 250.655 355.879 234.971 346.721 220.191V220.222Z" fill="black" fill-opacity="0.07"/>
<path d="M661.695 494.485C658.938 485.466 656.316 476.387 653.456 467.399C650.834 459.285 647.225 451.896 640.45 445.833C636.943 442.696 632.108 445.049 631.087 448.276C630.814 448.548 630.576 448.819 630.372 449.121C629.793 450.056 629.18 451.021 628.601 451.956C628.227 452.529 628.057 453.102 627.955 453.645C620.158 468.123 611.986 482.42 603.406 496.505C601.601 499.461 603.781 504.528 608.275 503.986C624.243 502.146 640.28 501.06 656.384 500.758C660.027 500.698 662.785 497.621 661.798 494.454L661.695 494.485Z" fill="black" fill-opacity="0.07"/>
<path d="M606.266 167.046C614.641 167.287 623.017 167.529 631.393 167.77C639.496 168.011 647.94 168.735 655.839 166.654C658.495 165.96 660.946 163.065 659.754 160.531C655.907 152.297 651.447 144.304 646.101 136.733C643.514 133.084 640.756 129.555 637.827 126.116C636.295 124.337 634.832 122.135 632.618 120.989C630.031 119.631 626.149 119.662 624.174 121.894C622.846 123.402 622.234 125.302 622.847 127.021C619.885 132.601 616.922 138.211 613.824 143.761C610.794 149.19 607.457 154.469 602.316 158.54C598.537 161.557 601.669 166.895 606.299 167.046H606.266Z" fill="black" fill-opacity="0.07"/>
</svg>
