<svg width="534" height="192" viewBox="0 0 534 192" fill="none" xmlns="http://www.w3.org/2000/svg">
<g clip-path="url(#clip0_23_34)">
<rect width="192" height="192" rx="43" fill="#A8EB53"/>
<path d="M141.59 60.45L116.414 73.5936C115.211 71.4077 113.97 71.3853 112.305 69.9093C110.673 68.4189 108.832 67.3322 106.78 66.6491C104.747 65.9192 102.55 65.6506 100.188 65.8435C97.812 66.0039 95.3254 66.6599 92.7284 67.8117C88.1837 69.8273 84.8265 72.6371 82.6567 76.241C80.5193 79.8305 79.5533 84.0466 79.7587 88.8891C79.9964 93.7172 81.3967 99.0204 83.9594 104.799C86.666 110.901 89.7451 115.654 93.1966 119.057C96.6662 122.413 100.42 124.439 104.458 125.134C108.481 125.797 112.684 125.157 117.066 123.213C119.566 122.105 121.669 120.803 123.376 119.308C125.068 117.78 126.378 116.092 127.306 114.243C128.234 112.394 128.778 110.424 128.939 108.333C129.117 106.195 129.009 104.249 128.384 101.962L155.809 88.4022C157.356 92.7662 158.087 98.902 157.985 104.191C157.869 109.448 156.749 114.762 154.625 120.133C152.519 125.457 149.203 130.462 144.678 135.15C140.153 139.837 134.238 143.801 126.934 147.04C117.78 151.1 108.696 152.778 99.6825 152.075C90.7015 151.358 82.4092 148.121 74.8059 142.364C67.235 136.593 61.002 128.188 56.107 117.151C51.1832 106.049 49.1793 95.7501 50.0954 86.2536C50.997 76.7246 54.2198 68.3999 59.7636 61.2795C65.2931 54.1266 72.5375 48.5634 81.497 44.5898C87.7947 41.7968 93.9707 40.0872 100.025 39.4609C106.079 38.8347 111.837 39.2917 117.299 40.832C122.745 42.3398 127.752 44.956 132.317 48.6806C136.882 52.4052 138.32 54.4801 141.59 60.45Z" fill="#242424"/>
<rect width="172" height="31.5226" transform="matrix(0.889718 -0.45651 -0.45651 -0.889718 -72.9958 205.669)" fill="#242424"/>
<line x1="1.25" y1="-1.25" x2="31.1651" y2="-1.25" transform="matrix(0.887414 -0.460973 0.45401 0.890996 -12.3163 144.827)" stroke="white" stroke-width="2.5" stroke-linecap="round"/>
<line x1="1.25" y1="-1.25" x2="2.49021" y2="-1.25" transform="matrix(0.887414 -0.460973 0.45401 0.890996 16.7345 129.608)" stroke="white" stroke-width="2.5" stroke-linecap="round"/>
<path d="M20.935 125.966L43.0624 114.471" stroke="white" stroke-width="2.5" stroke-linecap="round"/>
<path d="M20.935 125.966L43.0624 114.471" stroke="url(#paint0_linear_23_34)" stroke-opacity="0.09" stroke-width="2.5" stroke-linecap="round"/>
<path d="M141.59 60.45L116.414 73.5936C115.211 71.4077 113.97 71.3853 112.305 69.9093C110.673 68.4189 108.832 67.3322 106.78 66.6491C104.747 65.9192 102.55 65.6506 100.188 65.8435C97.812 66.0039 95.3254 66.6599 92.7284 67.8117C88.1837 69.8273 84.8265 72.6371 82.6567 76.241C80.5193 79.8305 79.5533 84.0466 79.7587 88.8891C79.9964 93.7172 81.3967 99.0204 83.9594 104.799C86.666 110.901 89.7451 115.654 93.1966 119.057C96.6662 122.413 100.42 124.439 104.458 125.134C108.481 125.797 112.684 125.157 117.066 123.213C119.566 122.105 121.669 120.803 123.376 119.308C125.068 117.78 126.378 116.092 127.306 114.243C128.234 112.394 128.778 110.424 128.939 108.333C129.117 106.195 129.009 104.249 128.384 101.962L155.809 88.4022C157.356 92.7662 158.087 98.902 157.985 104.191C157.869 109.448 156.749 114.762 154.625 120.133C152.519 125.457 149.203 130.462 144.678 135.15C140.153 139.837 134.238 143.801 126.934 147.04C117.78 151.1 108.696 152.778 99.6825 152.075C90.7015 151.358 82.4092 148.121 74.8059 142.364C67.235 136.593 61.002 128.188 56.107 117.151C51.1832 106.049 49.1793 95.7501 50.0954 86.2536C50.997 76.7246 54.2198 68.3999 59.7636 61.2795C65.2931 54.1266 72.5375 48.5634 81.497 44.5898C87.7947 41.7968 93.9707 40.0872 100.025 39.4609C106.079 38.8347 111.837 39.2917 117.299 40.832C122.745 42.3398 127.752 44.956 132.317 48.6806C136.882 52.4052 138.32 54.4801 141.59 60.45Z" fill="#242424"/>
<rect width="172" height="31.5226" transform="matrix(0.889718 -0.45651 -0.45651 -0.889718 -72.9958 205.669)" fill="#242424"/>
<line x1="1.25" y1="-1.25" x2="31.1651" y2="-1.25" transform="matrix(0.887414 -0.460973 0.45401 0.890996 -12.3163 144.827)" stroke="white" stroke-width="2.5" stroke-linecap="round"/>
<line x1="1.25" y1="-1.25" x2="2.49021" y2="-1.25" transform="matrix(0.887414 -0.460973 0.45401 0.890996 16.7345 129.608)" stroke="white" stroke-width="2.5" stroke-linecap="round"/>
<path d="M20.935 125.966L43.0624 114.471" stroke="white" stroke-width="2.5" stroke-linecap="round"/>
<path d="M20.935 125.966L43.0624 114.471" stroke="url(#paint1_linear_23_34)" stroke-opacity="0.09" stroke-width="2.5" stroke-linecap="round"/>
</g>
<path d="M251.421 153C246.176 153 241.38 151.563 237.033 148.689C232.734 145.816 229.308 141.967 226.756 137.143C224.252 132.268 223 126.854 223 120.901L223.142 71.7139C223.142 65.8638 224.37 60.5781 226.827 55.8569C229.284 51.0845 232.663 47.2614 236.962 44.3876C241.309 41.4625 246.129 40 251.421 40C256.807 40 261.603 41.4112 265.809 44.2337C270.061 47.0561 273.439 50.8792 275.944 55.703C278.495 60.4755 279.771 65.8124 279.771 71.7139V78.9496C279.771 79.3601 279.582 79.5654 279.204 79.5654H262.903C262.525 79.5654 262.336 79.3601 262.336 78.9496V71.7139C262.336 68.2243 261.296 65.2223 259.217 62.7078C257.138 60.1932 254.539 58.936 251.421 58.936C247.972 58.936 245.326 60.2189 243.483 62.7847C241.64 65.3506 240.719 68.327 240.719 71.7139V120.901C240.719 124.75 241.758 127.906 243.837 130.369C245.916 132.781 248.444 133.987 251.421 133.987C254.539 133.987 257.138 132.653 259.217 129.984C261.296 127.265 262.336 124.237 262.336 120.901V113.589C262.336 113.178 262.525 112.973 262.903 112.973H279.346C279.724 112.973 279.913 113.178 279.913 113.589V120.901C279.913 126.803 278.637 132.191 276.085 137.066C273.487 141.89 270.061 145.764 265.809 148.689C261.556 151.563 256.76 153 251.421 153Z" fill="#E1E1E1"/>
<path d="M317.335 153C312.185 153 307.436 151.563 303.089 148.689C298.789 145.816 295.316 141.993 292.67 137.22C290.071 132.396 288.772 127.111 288.772 121.363L288.914 71.406C288.914 65.5559 290.213 60.2959 292.812 55.626C295.363 50.9049 298.813 47.1331 303.16 44.3106C307.507 41.4369 312.232 40 317.335 40C322.627 40 327.375 41.4112 331.581 44.2337C335.833 47.0561 339.235 50.8535 341.787 55.626C344.385 60.3472 345.685 65.6072 345.685 71.406L345.827 121.363C345.827 127.111 344.551 132.371 341.999 137.143C339.401 141.967 335.951 145.816 331.652 148.689C327.352 151.563 322.58 153 317.335 153ZM317.335 133.987C320.264 133.987 322.816 132.704 324.989 130.138C327.163 127.521 328.25 124.596 328.25 121.363L328.108 71.406C328.108 67.9164 327.092 64.9657 325.06 62.5538C323.028 60.1419 320.453 58.936 317.335 58.936C314.358 58.936 311.807 60.1163 309.68 62.4768C307.554 64.8374 306.491 67.8138 306.491 71.406V121.363C306.491 124.801 307.554 127.778 309.68 130.292C311.807 132.755 314.358 133.987 317.335 133.987Z" fill="#E1E1E1"/>
<path d="M383.674 153C378.524 153 373.775 151.563 369.428 148.689C365.128 145.816 361.655 141.993 359.009 137.22C356.411 132.396 355.111 127.111 355.111 121.363L355.253 71.406C355.253 65.5559 356.552 60.2959 359.151 55.626C361.703 50.9049 365.152 47.1331 369.499 44.3106C373.846 41.4369 378.571 40 383.674 40C388.966 40 393.715 41.4112 397.92 44.2337C402.172 47.0561 405.574 50.8535 408.126 55.626C410.725 60.3472 412.024 65.6072 412.024 71.406L412.166 121.363C412.166 127.111 410.89 132.371 408.338 137.143C405.74 141.967 402.29 145.816 397.991 148.689C393.691 151.563 388.919 153 383.674 153ZM383.674 133.987C386.603 133.987 389.155 132.704 391.328 130.138C393.502 127.521 394.589 124.596 394.589 121.363L394.447 71.406C394.447 67.9164 393.431 64.9657 391.399 62.5538C389.368 60.1419 386.792 58.936 383.674 58.936C380.697 58.936 378.146 60.1163 376.019 62.4768C373.893 64.8374 372.83 67.8138 372.83 71.406V121.363C372.83 124.801 373.893 127.778 376.019 130.292C378.146 132.755 380.697 133.987 383.674 133.987Z" fill="#E1E1E1"/>
<path d="M470.638 151.46H423.718C423.34 151.46 423.151 151.204 423.151 150.691L423.293 42.5402C423.293 42.027 423.529 41.7704 424.002 41.7704H440.161C440.634 41.7704 440.87 42.027 440.87 42.5402L440.728 132.063H470.638C471.11 132.063 471.346 132.319 471.346 132.832V150.691C471.346 151.204 471.11 151.46 470.638 151.46Z" fill="#E1E1E1"/>
<path d="M505.508 153C500.358 153 495.609 151.563 491.262 148.689C486.963 145.816 483.513 141.993 480.915 137.22C478.363 132.396 477.087 127.111 477.087 121.363V114.127C477.087 113.563 477.324 113.281 477.796 113.281H494.097C494.475 113.281 494.664 113.563 494.664 114.127V121.363C494.664 124.801 495.727 127.778 497.854 130.292C499.98 132.755 502.531 133.987 505.508 133.987C508.532 133.987 511.107 132.73 513.234 130.215C515.36 127.649 516.423 124.699 516.423 121.363C516.423 117.514 514.108 114.153 509.477 111.279C508.721 110.766 507.729 110.15 506.5 109.432C505.319 108.662 503.902 107.79 502.248 106.815C500.594 105.84 498.988 104.89 497.428 103.967C495.869 102.992 494.357 102.068 492.892 101.196C487.6 97.8086 483.655 93.5749 481.056 88.4945C478.505 83.3628 477.229 77.6153 477.229 71.252C477.229 65.4019 478.552 60.1163 481.198 55.3951C483.844 50.7252 487.293 47.0304 491.546 44.3106C495.846 41.5395 500.5 40.154 505.508 40.154C510.658 40.154 515.383 41.5395 519.683 44.3106C523.983 47.1331 527.409 50.8792 529.96 55.549C532.559 60.2189 533.858 65.4532 533.858 71.252V84.1839C533.858 84.5945 533.669 84.7997 533.291 84.7997H516.99C516.612 84.7997 516.423 84.5945 516.423 84.1839L516.281 71.252C516.281 67.5572 515.218 64.5552 513.092 62.2459C510.966 59.9366 508.438 58.782 505.508 58.782C502.531 58.782 499.98 60.0136 497.854 62.4768C495.727 64.9401 494.664 67.8651 494.664 71.252C494.664 74.6903 495.326 77.564 496.649 79.8733C498.019 82.1826 500.5 84.3892 504.091 86.4932C504.469 86.6985 505.343 87.2116 506.713 88.0327C508.083 88.8538 509.595 89.7775 511.249 90.8038C512.95 91.7788 514.486 92.6769 515.856 93.498C517.226 94.2677 518.053 94.7296 518.337 94.8835C523.156 97.8086 526.96 101.401 529.747 105.66C532.582 109.919 534 115.154 534 121.363C534 127.367 532.724 132.755 530.173 137.528C527.574 142.3 524.125 146.072 519.825 148.843C515.525 151.614 510.753 153 505.508 153Z" fill="#E1E1E1"/>
<defs>
<linearGradient id="paint0_linear_23_34" x1="31.9987" y1="120.218" x2="32.4596" y2="121.106" gradientUnits="userSpaceOnUse">
<stop/>
<stop offset="1" stop-opacity="0"/>
</linearGradient>
<linearGradient id="paint1_linear_23_34" x1="31.9987" y1="120.218" x2="32.4596" y2="121.106" gradientUnits="userSpaceOnUse">
<stop/>
<stop offset="1" stop-opacity="0"/>
</linearGradient>
<clipPath id="clip0_23_34">
<rect width="192" height="192" rx="43" fill="white"/>
</clipPath>
</defs>
</svg>
